Coordinates
version=1
nRows=21
nColumns=22
inDegrees=yes

Units are S.I. units (second, meters, Newtons, ...)
If the header above contains a line with 'inDegrees', this indicates whether rotational values are in degrees (yes) or radians (no).

endheader
time	pelvis_tilt	pelvis_list	pelvis_rotation	pelvis_tx	pelvis_ty	pelvis_tz	hip_flexion_r	hip_adduction_r	hip_rotation_r	knee_angle_r	ankle_angle_r	subtalar_angle_r	hip_flexion_l	hip_adduction_l	hip_rotation_l	knee_angle_l	ankle_angle_l	subtalar_angle_l	lumbar_extension	lumbar_bending	lumbar_rotation
      3.58000000	     -0.49196894	     -2.88281643	    -38.17323654	      1.29335859	      0.86468528	      1.06597731	     13.43105556	     -2.28937843	     -0.33700873	    -27.99628895	     16.81439242	     -0.00869833	     13.23862111	     -9.52089571	      1.83137972	    -32.40425201	     19.83814265	     11.81090857	     -2.81602267	      3.03227761	     14.16340029
      3.59000000	     -0.64024276	     -2.73238340	    -38.16575785	      1.29415398	      0.86590771	      1.06805551	     13.10981781	     -2.23520331	     -0.32950848	    -27.23879999	     16.56086166	      0.03845161	     13.28411509	     -9.56617008	      1.82652367	    -32.25372912	     19.66344489	     12.20344374	     -2.75056478	      3.02532966	     14.08465815
      3.60000000	     -0.79019573	     -2.53345502	    -38.10516099	      1.29502010	      0.86718374	      1.06995986	     12.78209124	     -2.24024966	     -0.37966411	    -26.41303310	     16.28504908	      0.06261643	     13.35557859	     -9.54505329	      1.87399234	    -32.04388067	     19.46349340	     12.57761792	     -2.62939855	      2.96629166	     13.94753197
      3.61000000	     -0.95053637	     -2.32482616	    -38.00336904	      1.29592795	      0.86846949	      1.07171965	     12.43405999	     -2.25428125	     -0.44958928	    -25.52658630	     15.99390377	      0.06090495	     13.43266551	     -9.50276794	      1.95761437	    -31.76900970	     19.29053210	     12.96617831	     -2.48131319	      2.89252697	     13.74346292
      3.62000000	     -1.12510328	     -2.10661328	    -37.88319714	      1.29685425	      0.86969669	      1.07334607	     12.09684140	     -2.26975225	     -0.50737855	    -24.62553180	     15.70722506	      0.02655824	     13.50297815	     -9.44187343	      2.06784954	    -31.40536805	     19.14737345	     13.38008188	     -2.31108526	      2.81000056	     13.48568259
      3.63000000	     -1.31492767	     -1.87901619	    -37.74756419	      1.29779145	      0.87080567	      1.07478227	     11.79591270	     -2.29776813	     -0.59627711	    -23.74498398	     15.40124293	     -0.02238712	     13.59038532	     -9.35666762	      2.19452042	    -30.98941102	     18.98872434	     13.66594044	     -2.12752262	      2.72142703	     13.22290507
      3.64000000	     -1.53086903	     -1.63165463	    -37.64255702	      1.29869515	      0.87173576	      1.07608196	     11.58232856	     -2.32443952	     -0.60928518	    -22.94155233	     15.10736082	     -0.06736470	     13.66872576	     -9.25641570	      2.29804304	    -30.46282482	     18.80914567	     13.83563095	     -1.91831523	      2.63206983	     12.95553854
      3.65000000	     -1.74675319	     -1.42120627	    -37.53521547	      1.29961418	      0.87251965	      1.07722071	     11.37901647	     -2.33343690	     -0.65337074	    -22.19132137	     14.84798649	     -0.12987709	     13.71599906	     -9.16914491	      2.38487433	    -29.88605709	     18.60193004	     13.99306800	     -1.74458541	      2.57198383	     12.69889897
      3.66000000	     -1.95841329	     -1.25358706	    -37.44976845	      1.30053651	      0.87314579	      1.07825027	     11.19361245	     -2.31989165	     -0.72510713	    -21.51659324	     14.63859265	     -0.22044215	     13.71380287	     -9.11249467	      2.40716009	    -29.26391590	     18.34169228	     14.11584934	     -1.61279972	      2.54319012	     12.49328902
      3.67000000	     -2.20217494	     -1.08237967	    -37.42425871	      1.30133657	      0.87349648	      1.07918050	     11.15074000	     -2.28219855	     -0.71078875	    -21.01431043	     14.47473993	     -0.24743059	     13.73009673	     -9.08590007	      2.31519077	    -28.62896746	     17.99291481	     14.07808780	     -1.46714084	      2.53170529	     12.32322828
      3.68000000	     -2.41649794	     -0.96743506	    -37.43593099	      1.30210037	      0.87370967	      1.08002443	     11.12391108	     -2.22193785	     -0.71076742	    -20.63045237	     14.36186699	     -0.25222124	     13.67291177	     -9.09742886	      2.12313740	    -28.00264739	     17.59913318	     13.78108889	     -1.39714341	      2.54811123	     12.22641147
      3.69000000	     -2.65405675	     -0.85568895	    -37.50059146	      1.30275478	      0.87364522	      1.08077383	     11.23330936	     -2.14455165	     -0.67855790	    -20.42880390	     14.32579858	     -0.16362131	     13.63975766	     -9.14273694	      1.82541541	    -27.43679024	     17.20732469	     13.34060611	     -1.32087253	      2.58445977	     12.19231793
      3.70000000	     -2.87913768	     -0.77556001	    -37.59575831	      1.30330102	      0.87337962	      1.08142592	     11.41725328	     -2.04956967	     -0.64057289	    -20.39506161	     14.37725171	     -0.01960250	     13.58174594	     -9.21542446	      1.47891053	    -26.93008764	     16.87241217	     12.76874605	     -1.29121409	      2.63669423	     12.20360671
      3.71000000	     -3.08213070	     -0.72256614	    -37.70303692	      1.30374759	      0.87293412	      1.08193230	     11.66872598	     -1.95245878	     -0.61756898	    -20.52769972	     14.49995012	      0.16875024	     13.50459668	     -9.29192177	      1.14317762	    -26.49629093	     16.64221263	     12.04380570	     -1.31487470	      2.69711443	     12.22011892
      3.72000000	     -3.26877797	     -0.66740223	    -37.86951191	      1.30406254	      0.87231889	      1.08240106	     11.99197877	     -1.85654375	     -0.53738435	    -20.78150400	     14.65619029	      0.32475219	     13.39797779	     -9.36453752	      0.79348993	    -26.09275924	     16.55597713	     11.38470337	     -1.35842210	      2.73511748	     12.33686893
      3.73000000	     -3.41684823	     -0.64246834	    -38.03295193	      1.30428280	      0.87158844	      1.08272861	     12.34187207	     -1.76576747	     -0.48021642	    -21.16758526	     14.88060454	      0.48480976	     13.28059684	     -9.43292292	      0.48306095	    -25.78013019	     16.58660518	     10.64216180	     -1.46823727	      2.77212701	     12.43643803
      3.74000000	     -3.53849061	     -0.60879865	    -38.24787423	      1.30436012	      0.87076315	      1.08305242	     12.72826775	     -1.68089925	     -0.33756259	    -21.62698889	     15.11526287	      0.57928270	     13.14093123	     -9.48735095	      0.20575202	    -25.48869978	     16.73029337	     10.11127706	     -1.59808155	      2.76765608	     12.61631432
      3.75000000	     -3.62275058	     -0.58443523	    -38.45041292	      1.30437650	      0.86989792	      1.08328871	     13.10828326	     -1.61481517	     -0.21292498	    -22.13898953	     15.37339639	      0.65563110	     13.01019039	     -9.52371761	     -0.01161709	    -25.27177989	     16.95114140	      9.60245378	     -1.76495655	      2.73751405	     12.79073938
      3.76000000	     -3.67746601	     -0.56183353	    -38.64392411	      1.30436445	      0.86904148	      1.08348259	     13.47006664	     -1.57155181	     -0.12815620	    -22.66058719	     15.61694537	      0.71463226	     12.89369167	     -9.54258009	     -0.16371793	    -25.11779062	     17.21970848	      9.11581360	     -1.94772235	      2.67983103	     12.95815491
      3.77000000	     -3.69256927	     -0.52906347	    -38.85601686	      1.30427245	      0.86823536	      1.08367656	     13.80798813	     -1.54784031	      0.03289973	    -23.18068044	     15.87009505	      0.72608525	     12.79014595	     -9.54006262	     -0.29857992	    -25.03189893	     17.48085253	      8.88218578	     -2.14898135	      2.57461303	     13.16202318
      3.78000000	     -3.67823163	     -0.49070539	    -39.03934475	      1.30420612	      0.86751477	      1.08383730	     14.09943998	     -1.55452608	      0.16498543	    -23.65974122	     16.11323047	      0.72510553	     12.72031571	     -9.51448765	     -0.40055624	    -25.02375167	     17.75186789	      8.71444236	     -2.35035057	      2.43934659	     13.32830172
